<svg width="35" height="36" viewBox="0 0 35 36" fill="none" xmlns="http://www.w3.org/2000/svg">
<path fill-rule="evenodd" clip-rule="evenodd" d="M10.5383 7.16335C9.47047 6.09551 7.73915 6.09551 6.67131 7.16335C5.60348 8.23119 5.60348 9.96249 6.67131 11.0303L9.18638 13.5454C11.6432 16.0023 11.6433 19.9856 9.18638 22.4425L6.66344 24.9655C5.59561 26.0333 5.5956 27.7646 6.66344 28.8324C7.73128 29.9003 9.46259 29.9003 10.5304 28.8325L13.0564 26.3065C15.5116 23.8513 19.4922 23.8513 21.9474 26.3065L24.4594 28.8185C25.5273 29.8863 27.2586 29.8863 28.3264 28.8185C29.3943 27.7506 29.3943 26.0193 28.3264 24.9515L25.8105 22.4355C23.3575 19.9825 23.3575 16.0054 25.8105 13.5524L28.3186 11.0443C29.3864 9.97646 29.3864 8.24515 28.3186 7.17731C27.2507 6.10947 25.5194 6.10948 24.4516 7.17732L21.9435 9.6854C19.4905 12.1384 15.5134 12.1384 13.0603 9.6854L10.5383 7.16335Z" fill="#2563EB"/>
<ellipse cx="17.4999" cy="3.43125" rx="2.93124" ry="2.93125" fill="#2563EB"/>
<ellipse cx="32.0687" cy="18" rx="2.93124" ry="2.93125" fill="#2563EB"/>
<ellipse cx="17.4999" cy="32.5687" rx="2.93124" ry="2.93125" fill="#2563EB"/>
<ellipse cx="2.93124" cy="18" rx="2.93124" ry="2.93125" fill="#2563EB"/>
</svg>
