<svg xmlns="http://www.w3.org/2000/svg" version="1.1" xmlns:xlink="http://www.w3.org/1999/xlink" width="50.880001068115234" height="39.529998779296875"><svg xmlns="http://www.w3.org/2000/svg" version="1.1" xmlns:xlink="http://www.w3.org/1999/xlink" width="50.880001068115234" height="39.529998779296875"><svg xmlns="http://www.w3.org/2000/svg" viewBox="0 10.90999984741211 50.880001068115234 39.529998779296875" data-asc="1.0087890625" width="50.880001068115234" height="39.529998779296875"><defs></defs><g><g><g transform="translate(0, 0)"><path d="M22.95 10.91L22.95 50.44L13.94 50.44L8.59 32.47L8.59 50.44L0 50.44L0 10.91L8.59 10.91L14.36 28.71L14.36 10.91L22.95 10.91ZM27.08 10.91L34.77 10.91Q42.21 10.91 44.84 11.60Q47.46 12.28 48.83 13.84Q50.20 15.41 50.54 17.32Q50.88 19.24 50.88 24.85L50.88 38.70Q50.88 44.02 50.38 45.81Q49.88 47.61 48.63 48.62Q47.39 49.63 45.56 50.04Q43.73 50.44 40.04 50.44L27.08 50.44L27.08 10.91M37.35 17.68L37.35 43.68Q39.58 43.68 40.09 42.79Q40.60 41.89 40.60 37.94L40.60 22.58Q40.60 19.90 40.43 19.14Q40.26 18.38 39.65 18.03Q39.04 17.68 37.35 17.68Z"></path></g></g></g></svg><style>@media (prefers-color-scheme: light) { :root { filter: none; } }
@media (prefers-color-scheme: dark) { :root { filter: none; } }
</style></svg><style>@media (prefers-color-scheme: light) { :root { filter: none; } }
@media (prefers-color-scheme: dark) { :root { filter: invert(100%); } }
</style></svg>