<svg width="300" height="186" viewBox="0 0 300 186" fill="none" xmlns="http://www.w3.org/2000/svg">
<rect width="300" height="186" rx="15" fill="#D9D9D9"/>
<rect x="16" y="16" width="106" height="97" rx="15" fill="white"/>
<path d="M140.918 73V55.5455H151.861V57.8125H143.551V63.1307H151.29V65.3892H143.551V70.733H151.963V73H140.918ZM158.984 73.2898C158.154 73.2898 157.404 73.1364 156.734 72.8295C156.063 72.517 155.532 72.0653 155.14 71.4744C154.754 70.8835 154.56 70.1591 154.56 69.3011C154.56 68.5625 154.702 67.9545 154.987 67.4773C155.271 67 155.654 66.6222 156.137 66.3438C156.62 66.0653 157.16 65.8551 157.756 65.7131C158.353 65.571 158.961 65.4631 159.58 65.3892C160.364 65.2983 161.001 65.2244 161.489 65.1676C161.978 65.1051 162.333 65.0057 162.555 64.8693C162.776 64.733 162.887 64.5114 162.887 64.2045V64.1449C162.887 63.4006 162.677 62.8239 162.256 62.4148C161.842 62.0057 161.222 61.8011 160.398 61.8011C159.54 61.8011 158.864 61.9915 158.37 62.3722C157.881 62.7472 157.543 63.1648 157.356 63.625L154.961 63.0795C155.245 62.2841 155.66 61.642 156.205 61.1534C156.756 60.6591 157.39 60.3011 158.106 60.0795C158.822 59.8523 159.575 59.7386 160.364 59.7386C160.887 59.7386 161.441 59.8011 162.026 59.9261C162.617 60.0455 163.168 60.267 163.68 60.5909C164.197 60.9148 164.62 61.3778 164.95 61.9801C165.279 62.5767 165.444 63.3523 165.444 64.3068V73H162.955V71.2102H162.853C162.688 71.5398 162.441 71.8636 162.112 72.1818C161.782 72.5 161.359 72.7642 160.842 72.9744C160.325 73.1847 159.705 73.2898 158.984 73.2898ZM159.538 71.2443C160.242 71.2443 160.844 71.1051 161.344 70.8267C161.85 70.5483 162.234 70.1847 162.495 69.7358C162.762 69.2812 162.896 68.7955 162.896 68.2784V66.5909C162.805 66.6818 162.629 66.767 162.367 66.8466C162.112 66.9205 161.819 66.9858 161.489 67.0426C161.16 67.0937 160.839 67.142 160.526 67.1875C160.214 67.2273 159.952 67.2614 159.742 67.2898C159.248 67.3523 158.796 67.4574 158.387 67.6051C157.984 67.7528 157.66 67.9659 157.415 68.2443C157.177 68.517 157.058 68.8807 157.058 69.3352C157.058 69.9659 157.29 70.4432 157.756 70.767C158.222 71.0852 158.816 71.2443 159.538 71.2443ZM178.648 63.1051L176.338 63.5142C176.241 63.2187 176.088 62.9375 175.878 62.6705C175.673 62.4034 175.395 62.1847 175.043 62.0142C174.69 61.8437 174.25 61.7585 173.722 61.7585C173 61.7585 172.398 61.9205 171.915 62.2443C171.432 62.5625 171.19 62.9744 171.19 63.4801C171.19 63.9176 171.352 64.2699 171.676 64.5369C172 64.804 172.523 65.0227 173.244 65.1932L175.324 65.6705C176.528 65.9489 177.426 66.3778 178.017 66.9574C178.608 67.5369 178.903 68.2898 178.903 69.2159C178.903 70 178.676 70.6989 178.222 71.3125C177.773 71.9205 177.145 72.3977 176.338 72.7443C175.537 73.0909 174.608 73.2642 173.551 73.2642C172.085 73.2642 170.889 72.9517 169.963 72.3267C169.037 71.696 168.469 70.8011 168.259 69.642L170.722 69.267C170.875 69.9091 171.19 70.3949 171.668 70.7244C172.145 71.0483 172.767 71.2102 173.534 71.2102C174.369 71.2102 175.037 71.0369 175.537 70.6903C176.037 70.3381 176.287 69.9091 176.287 69.4034C176.287 68.9943 176.134 68.6506 175.827 68.3722C175.526 68.0937 175.062 67.8835 174.438 67.7415L172.222 67.2557C171 66.9773 170.097 66.5341 169.511 65.9261C168.932 65.3182 168.642 64.5483 168.642 63.6165C168.642 62.8437 168.858 62.1676 169.29 61.5881C169.722 61.0085 170.318 60.5568 171.08 60.233C171.841 59.9034 172.713 59.7386 173.696 59.7386C175.111 59.7386 176.224 60.0455 177.037 60.6591C177.849 61.267 178.386 62.0824 178.648 63.1051ZM183.316 77.9091C182.935 77.9091 182.589 77.8778 182.276 77.8153C181.964 77.7585 181.731 77.696 181.577 77.6278L182.191 75.5398C182.657 75.6648 183.072 75.7188 183.435 75.7017C183.799 75.6847 184.12 75.5483 184.398 75.2926C184.683 75.0369 184.933 74.6193 185.148 74.0398L185.464 73.1705L180.674 59.9091H183.401L186.717 70.0682H186.853L190.168 59.9091H192.904L187.509 74.7472C187.259 75.429 186.941 76.0057 186.555 76.4773C186.168 76.9545 185.708 77.3125 185.174 77.5511C184.64 77.7898 184.021 77.9091 183.316 77.9091ZM195.337 73H192.542L198.823 55.5455H201.866L208.147 73H205.352L200.417 58.7159H200.281L195.337 73ZM195.806 66.1648H204.874V68.3807H195.806V66.1648ZM215.766 73.2642C214.499 73.2642 213.408 72.9773 212.494 72.4034C211.585 71.8239 210.886 71.0256 210.397 70.0085C209.908 68.9915 209.664 67.8267 209.664 66.5142C209.664 65.1847 209.914 64.0114 210.414 62.9943C210.914 61.9716 211.619 61.1733 212.528 60.5994C213.437 60.0256 214.508 59.7386 215.741 59.7386C216.735 59.7386 217.621 59.9233 218.4 60.2926C219.178 60.6562 219.806 61.1676 220.283 61.8267C220.766 62.4858 221.053 63.2557 221.144 64.1364H218.664C218.528 63.5227 218.215 62.9943 217.727 62.5511C217.244 62.108 216.596 61.8864 215.783 61.8864C215.073 61.8864 214.451 62.0739 213.917 62.4489C213.388 62.8182 212.977 63.3466 212.681 64.0341C212.386 64.7159 212.238 65.5227 212.238 66.4545C212.238 67.4091 212.383 68.233 212.673 68.9261C212.962 69.6193 213.371 70.1562 213.9 70.5369C214.434 70.9176 215.062 71.108 215.783 71.108C216.266 71.108 216.704 71.0199 217.096 70.8438C217.494 70.6619 217.826 70.4034 218.093 70.0682C218.366 69.733 218.556 69.3295 218.664 68.858H221.144C221.053 69.7045 220.778 70.4602 220.317 71.125C219.857 71.7898 219.241 72.3125 218.468 72.6932C217.701 73.0739 216.8 73.2642 215.766 73.2642ZM229.384 73.2642C228.116 73.2642 227.026 72.9773 226.111 72.4034C225.202 71.8239 224.503 71.0256 224.014 70.0085C223.526 68.9915 223.281 67.8267 223.281 66.5142C223.281 65.1847 223.531 64.0114 224.031 62.9943C224.531 61.9716 225.236 61.1733 226.145 60.5994C227.054 60.0256 228.125 59.7386 229.358 59.7386C230.352 59.7386 231.239 59.9233 232.017 60.2926C232.795 60.6562 233.423 61.1676 233.901 61.8267C234.384 62.4858 234.67 63.2557 234.761 64.1364H232.281C232.145 63.5227 231.832 62.9943 231.344 62.5511C230.861 62.108 230.213 61.8864 229.401 61.8864C228.69 61.8864 228.068 62.0739 227.534 62.4489C227.006 62.8182 226.594 63.3466 226.298 64.0341C226.003 64.7159 225.855 65.5227 225.855 66.4545C225.855 67.4091 226 68.233 226.29 68.9261C226.58 69.6193 226.989 70.1562 227.517 70.5369C228.051 70.9176 228.679 71.108 229.401 71.108C229.884 71.108 230.321 71.0199 230.713 70.8438C231.111 70.6619 231.443 70.4034 231.71 70.0682C231.983 69.733 232.173 69.3295 232.281 68.858H234.761C234.67 69.7045 234.395 70.4602 233.935 71.125C233.474 71.7898 232.858 72.3125 232.085 72.6932C231.318 73.0739 230.418 73.2642 229.384 73.2642ZM243.129 73.2642C241.839 73.2642 240.728 72.9886 239.796 72.4375C238.87 71.8807 238.154 71.0994 237.648 70.0938C237.148 69.0824 236.898 67.8977 236.898 66.5398C236.898 65.1989 237.148 64.017 237.648 62.9943C238.154 61.9716 238.859 61.1733 239.762 60.5994C240.671 60.0256 241.734 59.7386 242.95 59.7386C243.688 59.7386 244.404 59.8608 245.097 60.1051C245.79 60.3494 246.413 60.733 246.964 61.2557C247.515 61.7784 247.95 62.4574 248.268 63.2926C248.586 64.1222 248.745 65.1307 248.745 66.3182V67.2216H238.339V65.3125H246.248C246.248 64.642 246.112 64.0483 245.839 63.5312C245.566 63.0085 245.183 62.5966 244.688 62.2955C244.2 61.9943 243.626 61.8438 242.967 61.8438C242.251 61.8438 241.626 62.0199 241.092 62.3722C240.563 62.7187 240.154 63.1733 239.864 63.7358C239.58 64.2926 239.438 64.8977 239.438 65.5511V67.0426C239.438 67.9176 239.592 68.6619 239.898 69.2756C240.211 69.8892 240.646 70.358 241.202 70.6818C241.759 71 242.41 71.1591 243.154 71.1591C243.637 71.1591 244.077 71.0909 244.475 70.9545C244.873 70.8125 245.217 70.6023 245.506 70.3239C245.796 70.0455 246.018 69.7017 246.171 69.2926L248.583 69.7273C248.39 70.4375 248.043 71.0597 247.543 71.5938C247.049 72.1222 246.427 72.5341 245.677 72.8295C244.933 73.1193 244.083 73.2642 243.129 73.2642ZM261.382 63.1051L259.072 63.5142C258.976 63.2187 258.822 62.9375 258.612 62.6705C258.408 62.4034 258.129 62.1847 257.777 62.0142C257.425 61.8437 256.984 61.7585 256.456 61.7585C255.734 61.7585 255.132 61.9205 254.649 62.2443C254.166 62.5625 253.925 62.9744 253.925 63.4801C253.925 63.9176 254.087 64.2699 254.411 64.5369C254.734 64.804 255.257 65.0227 255.979 65.1932L258.058 65.6705C259.263 65.9489 260.161 66.3778 260.751 66.9574C261.342 67.5369 261.638 68.2898 261.638 69.2159C261.638 70 261.411 70.6989 260.956 71.3125C260.507 71.9205 259.879 72.3977 259.072 72.7443C258.271 73.0909 257.342 73.2642 256.286 73.2642C254.82 73.2642 253.624 72.9517 252.697 72.3267C251.771 71.696 251.203 70.8011 250.993 69.642L253.456 69.267C253.609 69.9091 253.925 70.3949 254.402 70.7244C254.879 71.0483 255.501 71.2102 256.268 71.2102C257.104 71.2102 257.771 71.0369 258.271 70.6903C258.771 70.3381 259.021 69.9091 259.021 69.4034C259.021 68.9943 258.868 68.6506 258.561 68.3722C258.26 68.0937 257.797 67.8835 257.172 67.7415L254.956 67.2557C253.734 66.9773 252.831 66.5341 252.246 65.9261C251.666 65.3182 251.376 64.5483 251.376 63.6165C251.376 62.8437 251.592 62.1676 252.024 61.5881C252.456 61.0085 253.053 60.5568 253.814 60.233C254.575 59.9034 255.447 59.7386 256.43 59.7386C257.845 59.7386 258.959 60.0455 259.771 60.6591C260.584 61.267 261.121 62.0824 261.382 63.1051ZM274.249 63.1051L271.94 63.5142C271.843 63.2187 271.69 62.9375 271.479 62.6705C271.275 62.4034 270.996 62.1847 270.644 62.0142C270.292 61.8437 269.852 61.7585 269.323 61.7585C268.602 61.7585 267.999 61.9205 267.516 62.2443C267.033 62.5625 266.792 62.9744 266.792 63.4801C266.792 63.9176 266.954 64.2699 267.278 64.5369C267.602 64.804 268.124 65.0227 268.846 65.1932L270.925 65.6705C272.13 65.9489 273.028 66.3778 273.619 66.9574C274.21 67.5369 274.505 68.2898 274.505 69.2159C274.505 70 274.278 70.6989 273.823 71.3125C273.374 71.9205 272.746 72.3977 271.94 72.7443C271.138 73.0909 270.21 73.2642 269.153 73.2642C267.687 73.2642 266.491 72.9517 265.565 72.3267C264.638 71.696 264.07 70.8011 263.86 69.642L266.323 69.267C266.477 69.9091 266.792 70.3949 267.269 70.7244C267.746 71.0483 268.369 71.2102 269.136 71.2102C269.971 71.2102 270.638 71.0369 271.138 70.6903C271.638 70.3381 271.888 69.9091 271.888 69.4034C271.888 68.9943 271.735 68.6506 271.428 68.3722C271.127 68.0937 270.664 67.8835 270.039 67.7415L267.823 67.2557C266.602 66.9773 265.698 66.5341 265.113 65.9261C264.533 65.3182 264.244 64.5483 264.244 63.6165C264.244 62.8437 264.46 62.1676 264.891 61.5881C265.323 61.0085 265.92 60.5568 266.681 60.233C267.442 59.9034 268.315 59.7386 269.298 59.7386C270.712 59.7386 271.826 60.0455 272.638 60.6591C273.451 61.267 273.988 62.0824 274.249 63.1051Z" fill="black"/>
<rect x="16" y="130" width="267" height="32" rx="10" fill="#EEEEEE"/>
<path d="M35.2383 154.234C34.6602 154.234 34.0859 154.211 33.5156 154.164C32.9531 154.125 32.3789 154.07 31.793 154L32.8711 151.199C33.2852 151.395 33.7422 151.512 34.2422 151.551C34.7422 151.582 35.2383 151.598 35.7305 151.598C37.1133 151.598 38.1797 151.195 38.9297 150.391C39.6875 149.586 40.0664 148.445 40.0664 146.969C40.0664 146.016 39.8477 145.281 39.4102 144.766C38.9805 144.242 38.3633 143.98 37.5586 143.98C35.6445 143.98 34.6875 144.992 34.6875 147.016L33.9609 143.828H34.9805C35.1523 142.172 36.1484 141.344 37.9688 141.344C39.5703 141.344 40.8086 141.832 41.6836 142.809C42.5586 143.785 42.9961 145.172 42.9961 146.969C42.9961 149.273 42.3203 151.062 40.9688 152.336C39.6172 153.602 37.707 154.234 35.2383 154.234ZM31.793 154V136.422H34.6875V153.789L31.793 154ZM53.4844 154.117L53.2617 150.438L53.0977 149.055V146.312C53.0977 145.586 52.8125 145.055 52.2422 144.719C51.6719 144.375 50.8203 144.188 49.6875 144.156L46.5938 144.074L46.8281 141.461L49.4531 141.496C51.625 141.527 53.2383 141.973 54.293 142.832C55.3477 143.684 55.875 144.93 55.875 146.57V151.398L57.75 151.656V154L53.4844 154.117ZM49.207 154.234C47.8945 154.234 46.875 153.914 46.1484 153.273C45.4297 152.633 45.0703 151.727 45.0703 150.555C45.0703 149.195 45.5547 148.152 46.5234 147.426C47.4922 146.699 48.8633 146.336 50.6367 146.336C51.3398 146.336 51.957 146.375 52.4883 146.453C53.0195 146.531 53.5273 146.652 54.0117 146.816L53.4961 148.973C52.9883 148.855 52.5156 148.789 52.0781 148.773C51.6406 148.75 51.1836 148.738 50.707 148.738C48.8633 148.738 47.9414 149.281 47.9414 150.367C47.9414 150.844 48.1016 151.207 48.4219 151.457C48.75 151.707 49.2227 151.832 49.8398 151.832C50.5586 151.832 51.1602 151.703 51.6445 151.445C52.1289 151.18 52.4922 150.848 52.7344 150.449C52.9766 150.043 53.0977 149.625 53.0977 149.195V148.188L53.6602 151.375H52.6641L53.0742 151C53.0586 151.719 52.8906 152.32 52.5703 152.805C52.2578 153.281 51.8164 153.641 51.2461 153.883C50.6758 154.117 49.9961 154.234 49.207 154.234ZM66.5039 154.234C64.3008 154.234 62.5977 153.68 61.3945 152.57C60.1992 151.453 59.6016 149.852 59.6016 147.766C59.6016 145.734 60.1562 144.156 61.2656 143.031C62.375 141.906 63.9609 141.344 66.0234 141.344C67.2812 141.344 68.3555 141.586 69.2461 142.07C70.1445 142.547 70.7812 143.223 71.1562 144.098L69.0117 145.773C68.668 145.219 68.2266 144.793 67.6875 144.496C67.1562 144.191 66.5703 144.039 65.9297 144.039C64.8672 144.039 64.0391 144.352 63.4453 144.977C62.8516 145.602 62.5547 146.492 62.5547 147.648C62.5547 148.914 62.918 149.879 63.6445 150.543C64.3789 151.207 65.4258 151.539 66.7852 151.539C67.3555 151.539 67.9219 151.512 68.4844 151.457C69.0547 151.402 69.6094 151.328 70.1484 151.234L70.4531 153.883C69.8203 154.023 69.1641 154.117 68.4844 154.164C67.8047 154.211 67.1445 154.234 66.5039 154.234ZM75.8203 149.465V146.77H77.2266C78.1953 146.77 78.9922 146.602 79.6172 146.266C80.2422 145.93 80.7344 145.383 81.0938 144.625C81.4531 143.859 81.7148 142.844 81.8789 141.578H84.8672C84.5391 144.227 83.7891 146.203 82.6172 147.508C81.4531 148.812 79.8516 149.465 77.8125 149.465H75.8203ZM73.9453 154V136.422H76.8398V154H73.9453ZM82.1836 154L78.9375 147.953L81.5742 146.992L85.6641 154H82.1836ZM94.3008 154.234C92.168 154.234 90.5195 153.68 89.3555 152.57C88.1914 151.453 87.6094 149.852 87.6094 147.766C87.6094 145.734 88.1016 144.156 89.0859 143.031C90.0781 141.906 91.4727 141.344 93.2695 141.344C95.0039 141.344 96.3438 141.859 97.2891 142.891C98.2422 143.922 98.7188 145.418 98.7188 147.379C98.7188 147.949 98.6953 148.484 98.6484 148.984H89.6953V146.898H95.9531C95.9531 145.953 95.7188 145.227 95.25 144.719C94.7812 144.211 94.1289 143.957 93.293 143.957C92.3789 143.957 91.668 144.277 91.1602 144.918C90.6523 145.559 90.3984 146.469 90.3984 147.648C90.3984 148.922 90.7617 149.895 91.4883 150.566C92.2148 151.23 93.2461 151.562 94.582 151.562C95.1289 151.562 95.6641 151.535 96.1875 151.48C96.7188 151.418 97.2578 151.336 97.8047 151.234L98.1094 153.906C97.3438 154.047 96.6406 154.137 96 154.176C95.3594 154.215 94.793 154.234 94.3008 154.234ZM109.629 154V146.383C109.629 145.633 109.457 145.055 109.113 144.648C108.77 144.242 108.285 144.039 107.66 144.039C105.926 144.039 105.059 145.188 105.059 147.484L104.332 143.828H105.34C105.434 142.992 105.723 142.371 106.207 141.965C106.699 141.551 107.43 141.344 108.398 141.344C109.711 141.344 110.727 141.742 111.445 142.539C112.164 143.336 112.523 144.461 112.523 145.914V154H109.629ZM102.164 154V141.578H104.766L105.059 144.203V154H102.164ZM120.293 154.234C118.715 154.234 117.5 153.688 116.648 152.594C115.805 151.5 115.383 149.918 115.383 147.848C115.383 145.746 115.805 144.137 116.648 143.02C117.5 141.902 118.719 141.344 120.305 141.344C121.219 141.344 121.934 141.555 122.449 141.977C122.965 142.398 123.285 143.016 123.41 143.828H124.418L123.691 147.625C123.691 146.391 123.469 145.477 123.023 144.883C122.578 144.281 121.918 143.98 121.043 143.98C120.16 143.98 119.484 144.312 119.016 144.977C118.547 145.641 118.312 146.598 118.312 147.848C118.312 149.082 118.543 150.016 119.004 150.648C119.465 151.281 120.145 151.598 121.043 151.598C121.98 151.598 122.656 151.301 123.07 150.707C123.484 150.113 123.691 149.199 123.691 147.965L124.535 151.75H123.445C123.336 152.562 123.008 153.18 122.461 153.602C121.914 154.023 121.191 154.234 120.293 154.234ZM124.066 154.117L123.691 151.668V136.422H126.586V154L124.066 154.117ZM129.492 147.004V144.379H141.445V147.004H129.492ZM148.418 154.234C146.84 154.234 145.625 153.688 144.773 152.594C143.93 151.5 143.508 149.918 143.508 147.848C143.508 145.746 143.93 144.137 144.773 143.02C145.625 141.902 146.844 141.344 148.43 141.344C149.344 141.344 150.059 141.555 150.574 141.977C151.09 142.398 151.41 143.016 151.535 143.828H152.543L151.816 147.625C151.816 146.391 151.594 145.477 151.148 144.883C150.703 144.281 150.043 143.98 149.168 143.98C148.285 143.98 147.609 144.312 147.141 144.977C146.672 145.641 146.438 146.598 146.438 147.848C146.438 149.082 146.668 150.016 147.129 150.648C147.59 151.281 148.27 151.598 149.168 151.598C150.105 151.598 150.781 151.301 151.195 150.707C151.609 150.113 151.816 149.199 151.816 147.965L152.66 151.75H151.57C151.461 152.562 151.133 153.18 150.586 153.602C150.039 154.023 149.316 154.234 148.418 154.234ZM152.191 154.117L151.816 151.668V136.422H154.711V154L152.191 154.117ZM164.613 154.234C162.48 154.234 160.832 153.68 159.668 152.57C158.504 151.453 157.922 149.852 157.922 147.766C157.922 145.734 158.414 144.156 159.398 143.031C160.391 141.906 161.785 141.344 163.582 141.344C165.316 141.344 166.656 141.859 167.602 142.891C168.555 143.922 169.031 145.418 169.031 147.379C169.031 147.949 169.008 148.484 168.961 148.984H160.008V146.898H166.266C166.266 145.953 166.031 145.227 165.562 144.719C165.094 144.211 164.441 143.957 163.605 143.957C162.691 143.957 161.98 144.277 161.473 144.918C160.965 145.559 160.711 146.469 160.711 147.648C160.711 148.922 161.074 149.895 161.801 150.566C162.527 151.23 163.559 151.562 164.895 151.562C165.441 151.562 165.977 151.535 166.5 151.48C167.031 151.418 167.57 151.336 168.117 151.234L168.422 153.906C167.656 154.047 166.953 154.137 166.312 154.176C165.672 154.215 165.105 154.234 164.613 154.234ZM175.77 154L171.445 141.578H174.445L177.551 151.48H177.762L180.867 141.578H183.867L179.543 154H175.77ZM192.738 154.234C190.605 154.234 188.957 153.68 187.793 152.57C186.629 151.453 186.047 149.852 186.047 147.766C186.047 145.734 186.539 144.156 187.523 143.031C188.516 141.906 189.91 141.344 191.707 141.344C193.441 141.344 194.781 141.859 195.727 142.891C196.68 143.922 197.156 145.418 197.156 147.379C197.156 147.949 197.133 148.484 197.086 148.984H188.133V146.898H194.391C194.391 145.953 194.156 145.227 193.688 144.719C193.219 144.211 192.566 143.957 191.73 143.957C190.816 143.957 190.105 144.277 189.598 144.918C189.09 145.559 188.836 146.469 188.836 147.648C188.836 148.922 189.199 149.895 189.926 150.566C190.652 151.23 191.684 151.562 193.02 151.562C193.566 151.562 194.102 151.535 194.625 151.48C195.156 151.418 195.695 151.336 196.242 151.234L196.547 153.906C195.781 154.047 195.078 154.137 194.438 154.176C193.797 154.215 193.23 154.234 192.738 154.234ZM207.633 154.234C206.117 154.234 205.023 153.82 204.352 152.992C203.688 152.164 203.355 150.84 203.355 149.02V136.422H206.238V148.902C206.238 149.473 206.297 149.941 206.414 150.309C206.531 150.668 206.754 150.934 207.082 151.105C207.418 151.277 207.914 151.363 208.57 151.363C209.242 151.363 210.094 151.215 211.125 150.918L211.453 153.742C210.805 153.914 210.176 154.039 209.566 154.117C208.965 154.195 208.32 154.234 207.633 154.234ZM199.781 139.047V136.422H203.566V139.047H199.781ZM219.844 154.234C218.086 154.234 216.719 153.672 215.742 152.547C214.773 151.422 214.289 149.836 214.289 147.789C214.289 145.734 214.773 144.148 215.742 143.031C216.719 141.906 218.086 141.344 219.844 141.344C221.609 141.344 222.977 141.906 223.945 143.031C224.914 144.148 225.398 145.734 225.398 147.789C225.398 149.836 224.914 151.422 223.945 152.547C222.977 153.672 221.609 154.234 219.844 154.234ZM219.844 151.539C220.672 151.539 221.309 151.215 221.754 150.566C222.199 149.91 222.422 148.984 222.422 147.789C222.422 146.586 222.195 145.66 221.742 145.012C221.297 144.363 220.664 144.039 219.844 144.039C219.023 144.039 218.387 144.363 217.934 145.012C217.488 145.66 217.266 146.586 217.266 147.789C217.266 148.984 217.488 149.91 217.934 150.566C218.387 151.215 219.023 151.539 219.844 151.539ZM228.727 159.391V141.578H231.387L231.621 144.203V159.391H228.727ZM235.02 154.234C234.121 154.234 233.398 154.023 232.852 153.602C232.305 153.18 231.977 152.562 231.867 151.75H230.777L231.621 147.965C231.621 149.199 231.828 150.113 232.242 150.707C232.664 151.301 233.34 151.598 234.27 151.598C235.168 151.598 235.848 151.281 236.309 150.648C236.77 150.016 237 149.082 237 147.848C237 146.598 236.766 145.641 236.297 144.977C235.828 144.312 235.152 143.98 234.27 143.98C233.395 143.98 232.734 144.281 232.289 144.883C231.844 145.477 231.621 146.391 231.621 147.625L230.848 143.828H231.785C231.918 143.016 232.25 142.398 232.781 141.977C233.312 141.555 234.055 141.344 235.008 141.344C236.594 141.344 237.809 141.902 238.652 143.02C239.504 144.137 239.93 145.746 239.93 147.848C239.93 149.918 239.504 151.5 238.652 152.594C237.809 153.688 236.598 154.234 235.02 154.234ZM248.988 154.234C246.855 154.234 245.207 153.68 244.043 152.57C242.879 151.453 242.297 149.852 242.297 147.766C242.297 145.734 242.789 144.156 243.773 143.031C244.766 141.906 246.16 141.344 247.957 141.344C249.691 141.344 251.031 141.859 251.977 142.891C252.93 143.922 253.406 145.418 253.406 147.379C253.406 147.949 253.383 148.484 253.336 148.984H244.383V146.898H250.641C250.641 145.953 250.406 145.227 249.938 144.719C249.469 144.211 248.816 143.957 247.98 143.957C247.066 143.957 246.355 144.277 245.848 144.918C245.34 145.559 245.086 146.469 245.086 147.648C245.086 148.922 245.449 149.895 246.176 150.566C246.902 151.23 247.934 151.562 249.27 151.562C249.816 151.562 250.352 151.535 250.875 151.48C251.406 151.418 251.945 151.336 252.492 151.234L252.797 153.906C252.031 154.047 251.328 154.137 250.688 154.176C250.047 154.215 249.48 154.234 248.988 154.234ZM261.387 148.656L260.66 144.531H261.691C261.824 142.406 262.914 141.344 264.961 141.344C266.18 141.344 267.094 141.75 267.703 142.562C268.312 143.375 268.617 144.602 268.617 146.242H265.734C265.734 145.438 265.598 144.859 265.324 144.508C265.059 144.156 264.629 143.98 264.035 143.98C263.145 143.98 262.48 144.387 262.043 145.199C261.605 146.012 261.387 147.164 261.387 148.656ZM255.82 154V151.492H264.352V154H255.82ZM258.504 154V141.578H260.918L261.387 145.141V154H258.504ZM256.289 144.086V141.578H260.754L260.988 144.086H256.289Z" fill="black"/>
</svg>
